# OBJ written from C:\Users\Rene\Dropbox\Workspaces\CaptainObivous2\CaptainObvious\Assets\Models\small_items\PowerSocket.obj
# Units	meters

o Mesh
v -0.5 -0.435 0.405
v -0.435 -0.5 0.405
v 0.435 -0.5 0.405
v 0.5 -0.435 0.405
v 0.5 -0.435 0.5
v 0.435 -0.5 0.5
v -0.435 -0.5 0.5
v -0.5 -0.435 0.5
v -0.5 0.435 0.405
v -0.435 0.5 0.405
v 0.435 0.5 0.405
v 0.5 0.435 0.405
v 0.435 0.5 0.5
v 0.5 0.435 0.5
v -0.435 0.5 0.5
v -0.5 0.435 0.5
v 0.480962 -0.480962 0.5
v 0.480962 -0.480962 0.405
v -0.480962 -0.480962 0.405
v -0.480962 -0.480962 0.5
v 0.480962 0.480962 0.5
v 0.480962 0.480962 0.405
v -0.480962 0.480962 0.5
v -0.480962 0.480962 0.405
v -0.389868 0.297042 0.39
v -0.352611 0.3088 0.39
v 0.352611 0.3088 0.39
v 0.389868 0.297042 0.39
v 0.4053 0.268656 0.39
v 0.4053 -0.268656 0.39
v 0.389868 -0.297042 0.39
v 0.352611 -0.3088 0.39
v -0.352611 -0.3088 0.39
v -0.389868 -0.297042 0.39
v -0.4053 -0.268656 0.39
v -0.4053 0.268656 0.39
v -0.213389 -0.1232 0.38412
v -0.174231 -0.174231 0.38412
v -0.1232 -0.213389 0.38412
v -0.063773 -0.238004 0.38412
v 0 -0.2464 0.38412
v -0.2464 0 0.38412
v -0.238004 -0.063773 0.38412
v 0.063773 -0.238004 0.38412
v 0.1232 -0.213389 0.38412
v 0.174231 -0.174231 0.38412
v 0.213389 -0.1232 0.38412
v 0.238004 -0.063773 0.38412
v 0.2464 0 0.38412
v -0.213389 0.1232 0.38412
v -0.238004 0.063773 0.38412
v -0.1232 0.213389 0.38412
v -0.174231 0.174231 0.38412
v 0 0.2464 0.38412
v -0.063773 0.238004 0.38412
v 0.238004 0.063773 0.38412
v 0.213389 0.1232 0.38412
v 0.1232 0.213389 0.38412
v 0.063773 0.238004 0.38412
v 0.174231 0.174231 0.38412
v 0 -0.2464 0.49388
v 0.063773 -0.238004 0.49388
v 0.1232 -0.213389 0.49388
v 0.174231 -0.174231 0.49388
v 0.213389 -0.1232 0.49388
v 0.238004 -0.063773 0.49388
v 0.2464 0 0.49388
v 0.238004 0.063773 0.49388
v 0.213389 0.1232 0.49388
v 0.174231 0.174231 0.49388
v 0.1232 0.213389 0.49388
v 0.063773 0.238004 0.49388
v 0 0.2464 0.49388
v -0.063773 0.238004 0.49388
v -0.1232 0.213389 0.49388
v -0.174231 0.174231 0.49388
v -0.213389 0.1232 0.49388
v -0.238004 0.063773 0.49388
v -0.2464 0 0.49388
v -0.238004 -0.063773 0.49388
v -0.213389 -0.1232 0.49388
v -0.174231 -0.174231 0.49388
v -0.1232 -0.213389 0.49388
v -0.063773 -0.238004 0.49388
v 0.118888 0.20592 0.49388
v 0.168133 0.168133 0.49388
v 0.20592 0.118888 0.49388
v 0.229674 0.061541 0.49388
v 0.237776 0 0.49388
v 0.229674 -0.061541 0.49388
v 0.20592 -0.118888 0.49388
v 0.168133 -0.168133 0.49388
v 0.118888 -0.20592 0.49388
v 0.061541 -0.229674 0.49388
v 0 -0.237776 0.49388
v -0.061541 -0.229674 0.49388
v -0.118888 -0.20592 0.49388
v -0.168133 -0.168133 0.49388
v -0.20592 -0.118888 0.49388
v -0.229674 -0.061541 0.49388
v -0.237776 0 0.49388
v -0.229674 0.061541 0.49388
v -0.20592 0.118888 0.49388
v -0.168133 0.168133 0.49388
v -0.118888 0.20592 0.49388
v -0.061541 0.229674 0.49388
v 0 0.237776 0.49388
v 0.061541 0.229674 0.49388
v 0.118888 0.20592 0.25188
v 0.168133 0.168133 0.25188
v 0.20592 0.118888 0.25188
v 0.229674 0.061541 0.25188
v 0.237776 0 0.25188
v 0.229674 -0.061541 0.25188
v 0.20592 -0.118888 0.25188
v 0.168133 -0.168133 0.25188
v 0.118888 -0.20592 0.25188
v 0.061541 -0.229674 0.25188
v 0 -0.237776 0.25188
v -0.061541 -0.229674 0.25188
v -0.118888 -0.20592 0.25188
v -0.168133 -0.168133 0.25188
v -0.20592 -0.118888 0.25188
v -0.229674 -0.061541 0.25188
v -0.237776 0 0.25188
v -0.229674 0.061541 0.25188
v -0.20592 0.118888 0.25188
v -0.168133 0.168133 0.25188
v -0.118888 0.20592 0.25188
v -0.061541 0.229674 0.25188
v 0 0.237776 0.25188
v 0.061541 0.229674 0.25188
v 0.0719272 0.124582 0.13388
v 0.10172 0.10172 0.13388
v 0.124582 0.0719272 0.13388
v 0.138953 0.0372323 0.13388
v 0.143854 0 0.13388
v 0.138953 -0.0372323 0.13388
v 0.124582 -0.0719272 0.13388
v 0.10172 -0.10172 0.13388
v 0.0719272 -0.124582 0.13388
v 0.0372323 -0.138953 0.13388
v 0 -0.143854 0.13388
v -0.0372323 -0.138953 0.13388
v -0.0719272 -0.124582 0.13388
v -0.10172 -0.10172 0.13388
v -0.124582 -0.0719272 0.13388
v -0.138953 -0.0372323 0.13388
v -0.143854 0 0.13388
v -0.138953 0.0372323 0.13388
v -0.124582 0.0719272 0.13388
v -0.10172 0.10172 0.13388
v -0.0719272 0.124582 0.13388
v -0.0372323 0.138953 0.13388
v 0 0.143854 0.13388
v 0.0372323 0.138953 0.13388
v 0.0719272 0.124582 0.10588
v 0.10172 0.10172 0.10588
v 0.124582 0.0719272 0.10588
v 0.138953 0.0372323 0.10588
v 0.143854 0 0.10588
v 0.138953 -0.0372323 0.10588
v 0.124582 -0.0719272 0.10588
v 0.10172 -0.10172 0.10588
v 0.0719272 -0.124582 0.10588
v 0.0372323 -0.138953 0.10588
v 0 -0.143854 0.10588
v -0.0372323 -0.138953 0.10588
v -0.0719272 -0.124582 0.10588
v -0.10172 -0.10172 0.10588
v -0.124582 -0.0719272 0.10588
v -0.138953 -0.0372323 0.10588
v -0.143854 0 0.10588
v -0.138953 0.0372323 0.10588
v -0.124582 0.0719272 0.10588
v -0.10172 0.10172 0.10588
v -0.0719272 0.124582 0.10588
v -0.0372323 0.138953 0.10588
v 0 0.143854 0.10588
v 0.0372323 0.138953 0.10588
vn 0.980785 -0.19509 0
vn 0.92388 -0.382683 0
vn 0.382683 -0.92388 0
vn 0.19509 -0.980785 0
vn -0.980785 -0.19509 0
vn -0.92388 -0.382683 0
vn -0.382683 -0.92388 0
vn -0.19509 -0.980785 0
vn 0.19509 0.980785 0
vn 0.382683 0.92388 0
vn 0.92388 0.382683 0
vn 0.980785 0.19509 0
vn -0.980785 0.19509 0
vn -0.92388 0.382683 0
vn -0.382683 0.92388 0
vn -0.19509 0.980785 0
vn -0.079255 6.9754e-005 -0.996854
vn -0.118677 0.0219523 -0.99269
vn -0.0514659 0.0571306 -0.997039
vn -0.0343537 0.0235579 -0.999132
vn -0.0111001 0.074281 -0.997176
vn -0.00741148 0.0350224 -0.999359
vn 0.0108697 0.0735509 -0.997232
vn 0.00725748 0.0345342 -0.999377
vn 0.0499874 0.0557208 -0.997194
vn 0.0333654 0.0226164 -0.999187
vn 0.117434 0.021275 -0.992853
vn 0.0784205 -0.000383014 -0.99692
vn 0.118677 -0.0219523 -0.99269
vn 0.0792211 -0.0292381 -0.996428
vn 0.0514659 -0.0571306 -0.997039
vn 0.0343155 -0.0526533 -0.998023
vn 0.0111001 -0.074281 -0.997176
vn 0.00740078 -0.0640789 -0.997917
vn -0.0108697 -0.0735509 -0.997232
vn -0.00724711 -0.0635918 -0.99795
vn -0.0499874 -0.0557208 -0.997194
vn -0.0333293 -0.0517122 -0.998106
vn -0.117434 -0.021275 -0.992853
vn -0.0783881 -0.0287853 -0.996507
vn 0 -0.0436534 -0.999047
vn 0 1 0
vn -0.258819 0.965926 0
vn -0.5 0.866025 0
vn -0.707107 0.707107 0
vn -0.866025 0.5 0
vn -0.965926 0.258819 0
vn -1 0 0
vn -0.965926 -0.258819 0
vn -0.866025 -0.5 0
vn -0.707107 -0.707107 0
vn -0.5 -0.866025 0
vn -0.258819 -0.965926 0
vn 0 -1 0
vn 0.258819 -0.965926 0
vn 0.5 -0.866025 0
vn 0.707107 -0.707107 0
vn 0.866025 -0.5 0
vn 0.965926 -0.258819 0
vn 1 0 0
vn 0.965926 0.258819 0
vn 0.866025 0.5 0
vn 0.707107 0.707107 0
vn 0.5 0.866025 0
vn 0.258819 0.965926 0
vn 0 0 -1
vn 0.287328 0.932514 -0.218768
vn 0.258819 0.965926 0
vn 0.5 0.866025 0
vn 0.456215 0.862559 -0.218768
vn 0.51889 0.826374 -0.218768
vn 0.663917 0.715091 -0.218768
vn 0.715091 0.663917 -0.218768
vn 0.866025 0.5 0
vn 0.826374 0.51889 -0.218768
vn 0.862559 0.456215 -0.218768
vn 0.965926 0.258819 0
vn 0.932514 0.287328 -0.218768
vn 0.951245 0.217424 -0.218768
vn 0.975106 0.0361852 -0.218768
vn 0.975106 -0.0361852 -0.218768
vn 0.965926 -0.258819 0
vn 0.951245 -0.217424 -0.218768
vn 0.932514 -0.287328 -0.218768
vn 0.866025 -0.5 0
vn 0.862559 -0.456215 -0.218768
vn 0.826374 -0.51889 -0.218768
vn 0.715091 -0.663917 -0.218768
vn 0.663917 -0.715091 -0.218768
vn 0.5 -0.866025 0
vn 0.51889 -0.826374 -0.218768
vn 0.456215 -0.862559 -0.218768
vn 0.258819 -0.965926 0
vn 0.287328 -0.932514 -0.218768
vn 0.217424 -0.951245 -0.218768
vn 0.0361852 -0.975106 -0.218768
vn -0.0361852 -0.975106 -0.218768
vn -0.258819 -0.965926 0
vn -0.217424 -0.951245 -0.218768
vn -0.287328 -0.932514 -0.218768
vn -0.5 -0.866025 0
vn -0.456215 -0.862559 -0.218768
vn -0.51889 -0.826374 -0.218768
vn -0.663917 -0.715091 -0.218768
vn -0.715091 -0.663917 -0.218768
vn -0.866025 -0.5 0
vn -0.826374 -0.51889 -0.218768
vn -0.862559 -0.456215 -0.218768
vn -0.965926 -0.258819 0
vn -0.932514 -0.287328 -0.218768
vn -0.951245 -0.217424 -0.218768
vn -0.975106 -0.0361852 -0.218768
vn -0.975106 0.0361852 -0.218768
vn -0.965926 0.258819 0
vn -0.951245 0.217424 -0.218768
vn -0.932514 0.287328 -0.218768
vn -0.866025 0.5 0
vn -0.862559 0.456215 -0.218768
vn -0.826374 0.51889 -0.218768
vn -0.715091 0.663917 -0.218768
vn -0.663917 0.715091 -0.218768
vn -0.5 0.866025 0
vn -0.51889 0.826374 -0.218768
vn -0.456215 0.862559 -0.218768
vn -0.258819 0.965926 0
vn -0.287328 0.932514 -0.218768
vn -0.217424 0.951245 -0.218768
vn -0.0361852 0.975106 -0.218768
vn 0.0361852 0.975106 -0.218768
vn 0.217424 0.951245 -0.218768
vn 0.276967 0.855847 -0.436824
vn 0.40933 0.80102 -0.436824
vn 0.40933 0.80102 -0.436824
vn 0.489039 0.755 -0.436824
vn 0.489039 0.755 -0.436824
vn 0.602702 0.667784 -0.436824
vn 0.602702 0.667784 -0.436824
vn 0.667784 0.602702 -0.436824
vn 0.667784 0.602702 -0.436824
vn 0.755 0.489039 -0.436824
vn 0.755 0.489039 -0.436824
vn 0.80102 0.40933 -0.436824
vn 0.80102 0.40933 -0.436824
vn 0.855847 0.276967 -0.436824
vn 0.855847 0.276967 -0.436824
vn 0.879669 0.188063 -0.436824
vn 0.879669 0.188063 -0.436824
vn 0.898369 0.0460201 -0.436824
vn 0.898369 0.0460201 -0.436824
vn 0.898369 -0.0460201 -0.436824
vn 0.898369 -0.0460201 -0.436824
vn 0.879669 -0.188063 -0.436824
vn 0.879669 -0.188063 -0.436824
vn 0.855847 -0.276967 -0.436824
vn 0.80102 -0.40933 -0.436824
vn 0.755 -0.489039 -0.436824
vn 0.755 -0.489039 -0.436824
vn 0.667784 -0.602702 -0.436824
vn 0.667784 -0.602702 -0.436824
vn 0.602702 -0.667784 -0.436824
vn 0.602702 -0.667784 -0.436824
vn 0.489039 -0.755 -0.436824
vn 0.489039 -0.755 -0.436824
vn 0.40933 -0.80102 -0.436824
vn 0.40933 -0.80102 -0.436824
vn 0.276967 -0.855847 -0.436824
vn 0.276967 -0.855847 -0.436824
vn 0.188063 -0.879669 -0.436824
vn 0.188063 -0.879669 -0.436824
vn 0.0460201 -0.898369 -0.436824
vn 0.0460201 -0.898369 -0.436824
vn -0.0460201 -0.898369 -0.436824
vn -0.0460201 -0.898369 -0.436824
vn -0.188063 -0.879669 -0.436824
vn -0.188063 -0.879669 -0.436824
vn -0.276967 -0.855847 -0.436824
vn -0.40933 -0.80102 -0.436824
vn -0.40933 -0.80102 -0.436824
vn -0.489039 -0.755 -0.436824
vn -0.489039 -0.755 -0.436824
vn -0.602702 -0.667784 -0.436824
vn -0.602702 -0.667784 -0.436824
vn -0.667784 -0.602702 -0.436824
vn -0.667784 -0.602702 -0.436824
vn -0.755 -0.489039 -0.436824
vn -0.755 -0.489039 -0.436824
vn -0.80102 -0.40933 -0.436824
vn -0.80102 -0.40933 -0.436824
vn -0.855847 -0.276967 -0.436824
vn -0.855847 -0.276967 -0.436824
vn -0.879669 -0.188063 -0.436824
vn -0.879669 -0.188063 -0.436824
vn -0.898369 -0.0460201 -0.436824
vn -0.898369 -0.0460201 -0.436824
vn -0.898369 0.0460201 -0.436824
vn -0.898369 0.0460201 -0.436824
vn -0.879669 0.188063 -0.436824
vn -0.879669 0.188063 -0.436824
vn -0.855847 0.276967 -0.436824
vn -0.80102 0.40933 -0.436824
vn -0.755 0.489039 -0.436824
vn -0.755 0.489039 -0.436824
vn -0.667784 0.602702 -0.436824
vn -0.667784 0.602702 -0.436824
vn -0.602702 0.667784 -0.436824
vn -0.602702 0.667784 -0.436824
vn -0.489039 0.755 -0.436824
vn -0.489039 0.755 -0.436824
vn -0.40933 0.80102 -0.436824
vn -0.40933 0.80102 -0.436824
vn -0.276967 0.855847 -0.436824
vn -0.276967 0.855847 -0.436824
vn -0.188063 0.879669 -0.436824
vn -0.188063 0.879669 -0.436824
vn -0.0460201 0.898369 -0.436824
vn -0.0460201 0.898369 -0.436824
vn 0.0460201 0.898369 -0.436824
vn 0.0460201 0.898369 -0.436824
vn 0.188063 0.879669 -0.436824
vn 0.188063 0.879669 -0.436824
vn 0.258819 0.965926 0
vn 0.287328 0.932514 -0.218768
vn 0.456215 0.862559 -0.218768
vn 0.51889 0.826374 -0.218768
vn 0.663917 0.715091 -0.218768
vn 0.715091 0.663917 -0.218768
vn 0.826374 0.51889 -0.218768
vn 0.862559 0.456215 -0.218768
vn 0.932514 0.287328 -0.218768
vn 0.965926 0.258819 0
vn 0.951245 0.217424 -0.218768
vn 0.975106 0.0361852 -0.218768
vn 0.975106 -0.0361852 -0.218768
vn 0.951245 -0.217424 -0.218768
vn 0.965926 -0.258819 0
vn 0.932514 -0.287328 -0.218768
vn 0.862559 -0.456215 -0.218768
vn 0.826374 -0.51889 -0.218768
vn 0.663917 -0.715091 -0.218768
vn 0.51889 -0.826374 -0.218768
vn 0.456215 -0.862559 -0.218768
vn 0.287328 -0.932514 -0.218768
vn 0.258819 -0.965926 0
vn 0.217424 -0.951245 -0.218768
vn 0.0361852 -0.975106 -0.218768
vn -0.0361852 -0.975106 -0.218768
vn -0.217424 -0.951245 -0.218768
vn -0.258819 -0.965926 0
vn -0.287328 -0.932514 -0.218768
vn -0.456215 -0.862559 -0.218768
vn -0.51889 -0.826374 -0.218768
vn -0.663917 -0.715091 -0.218768
vn -0.715091 -0.663917 -0.218768
vn -0.826374 -0.51889 -0.218768
vn -0.862559 -0.456215 -0.218768
vn -0.932514 -0.287328 -0.218768
vn -0.965926 -0.258819 0
vn -0.951245 -0.217424 -0.218768
vn -0.975106 -0.0361852 -0.218768
vn -0.975106 0.0361852 -0.218768
vn -0.951245 0.217424 -0.218768
vn -0.965926 0.258819 0
vn -0.932514 0.287328 -0.218768
vn -0.862559 0.456215 -0.218768
vn -0.826374 0.51889 -0.218768
vn -0.663917 0.715091 -0.218768
vn -0.51889 0.826374 -0.218768
vn -0.456215 0.862559 -0.218768
vn -0.287328 0.932514 -0.218768
vn -0.258819 0.965926 0
vn -0.217424 0.951245 -0.218768
vn -0.0361852 0.975106 -0.218768
vn 0.0361852 0.975106 -0.218768
vn 0.217424 0.951245 -0.218768
vt 0.51625 0
vt 0.51625 0.333333
vt 0.5 0.333333
vt 0.5 0
vt 0.48375 0.333333
vt 0.48375 0
vt 0.23375 0.333333
vt 0.23375 0
vt 0.25 0
vt 0.25 0.333333
vt 0.26625 0
vt 0.26625 0.333333
vt 0.75 0.688333
vt 0.5 0.688333
vt 0.5 0.666667
vt 0.75 0.666667
vt 0.5 0.645
vt 0.75 0.645
vt 0.23375 1
vt 0.23375 0.666667
vt 0.25 0.666667
vt 0.25 1
vt 0.26625 0.666667
vt 0.26625 1
vt 0.5 0.355
vt 0.75 0.355
vt 0 0.645
vt 0 0.355
vt 0.25 0.355
vt 0.25 0.645
vt 0.48375 0.666667
vt 0.48375 1
vt 1 1
vt 0 1
vt 1 0.688333
vt 0 0.688333
vt 0 0.666667
vt 1 0.666667
vt 1 0.645
vt 1 0.355
vt 1 0
vt 0 0
vt 0.76625 0.333333
vt 0.98375 0.333333
vt 0.991875 0.344167
vt 0.991875 0.655833
vt 0.98375 0.666667
vt 0.76625 0.666667
vt 0.758125 0.655833
vt 0.758125 0.344167
vt 0.827282 0.416386
vt 0.815822 0.440074
vt 0.809461 0.469268
vt 0.807149 0.5
vt 0.809461 0.530732
vt 0.815822 0.559926
vt 0.827282 0.583614
vt 0.841075 0.602831
vt 0.857439 0.614693
vt 0.875 0.618739
vt 0.892561 0.614693
vt 0.908925 0.602831
vt 0.922718 0.583614
vt 0.934178 0.559926
vt 0.940539 0.530732
vt 0.942851 0.5
vt 0.940539 0.469268
vt 0.934178 0.440074
vt 0.922718 0.416386
vt 0.908925 0.397169
vt 0.892561 0.385307
vt 0.875 0.381261
vt 0.857439 0.385307
vt 0.841074 0.397169
mtllib PowerSocket.mtl
usemtl Default
g Default
f 4/1/1 5/2/1 17/3/2 18/4/2
f 18/4/3 17/3/3 6/5/4 3/6/4
f 8/7/5 1/8/5 19/9/6 20/10/6
f 20/10/7 19/9/7 2/11/8 7/12/8
f 11/13/9 13/14/9 21/15/10 22/16/10
f 22/16/11 21/15/11 14/17/12 12/18/12
f 9/19/13 16/20/13 23/21/14 24/22/14
f 24/22/15 23/21/15 15/23/16 10/24/16
f 3/6/4 6/5/4 7/12/8 2/11/8
f 14/17/12 5/25/1 4/26/1 12/18/12
f 9/27/13 1/28/5 8/29/5 16/30/13
f 15/23/16 13/31/9 11/32/9 10/24/16
f 36/33/17 9/34/18 24/34/19 25/33/20
f 25/33/20 24/34/19 10/34/21 26/33/22
f 26/33/22 10/34/21 11/34/23 27/33/24
f 27/35/24 11/36/23 22/37/25 28/38/26
f 28/38/26 22/37/25 12/27/27 29/39/28
f 29/39/28 12/27/27 4/28/29 30/40/30
f 30/41/30 4/42/29 18/42/31 31/41/32
f 31/41/32 18/42/31 3/42/33 32/41/34
f 32/41/34 3/42/33 2/42/35 33/41/36
f 33/41/36 2/42/35 19/42/37 34/41/38
f 34/41/38 19/42/37 1/42/39 35/41/40
f 35/40/40 1/28/39 9/27/18 36/39/17
f 32/43/34 33/44/36 34/45/38 35/40/40 36/39/17 25/46/20 26/47/22 27/48/24 28/49/26 29/18/28 30/26/30 31/50/32 32/43/34 46/51/41 47/52/41 48/53/41 49/54/41 56/55/41 57/56/41 60/57/41 58/58/41 59/59/41 54/60/41 55/61/41 52/62/41 53/63/41 50/64/41 51/65/41 42/66/41 43/67/41 37/68/41 38/69/41 39/70/41 40/71/41 41/72/41 44/73/41 45/74/41 46/51/41
f 41/42/42 61/41/42 62/33/43 44/34/43
f 44/42/43 62/41/43 63/33/44 45/34/44
f 45/42/44 63/41/44 64/33/45 46/34/45
f 46/42/45 64/41/45 65/33/46 47/34/46
f 47/42/46 65/41/46 66/33/47 48/34/47
f 48/42/47 66/41/47 67/33/48 49/34/48
f 49/42/48 67/41/48 68/33/49 56/34/49
f 56/42/49 68/41/49 69/33/50 57/34/50
f 57/42/50 69/41/50 70/33/51 60/34/51
f 60/42/51 70/41/51 71/33/52 58/34/52
f 58/42/52 71/41/52 72/33/53 59/34/53
f 59/42/53 72/41/53 73/33/54 54/34/54
f 54/42/54 73/41/54 74/33/55 55/34/55
f 55/42/55 74/41/55 75/33/56 52/34/56
f 52/42/56 75/41/56 76/33/57 53/34/57
f 53/42/57 76/41/57 77/33/58 50/34/58
f 50/42/58 77/41/58 78/33/59 51/34/59
f 51/42/59 78/41/59 79/33/60 42/34/60
f 42/42/60 79/41/60 80/33/61 43/34/61
f 43/42/61 80/41/61 81/33/62 37/34/62
f 37/42/62 81/41/62 82/33/63 38/34/63
f 38/42/63 82/41/63 83/33/64 39/34/64
f 39/42/64 83/41/64 84/33/65 40/34/65
f 40/42/65 84/41/65 61/33/42 41/34/42
f 108/33/66 72/34/66 71/42/66 85/41/66
f 85/33/66 71/34/66 70/42/66 86/41/66
f 86/33/66 70/34/66 69/42/66 87/41/66
f 87/33/66 69/34/66 68/42/66 88/41/66
f 88/33/66 68/34/66 67/42/66 89/41/66
f 89/33/66 67/34/66 66/42/66 90/41/66
f 90/33/66 66/34/66 65/42/66 91/41/66
f 91/33/66 65/34/66 64/42/66 92/41/66
f 92/33/66 64/34/66 63/42/66 93/41/66
f 93/33/66 63/34/66 62/42/66 94/41/66
f 94/33/66 62/34/66 61/42/66 95/41/66
f 95/33/66 61/34/66 84/42/66 96/41/66
f 96/33/66 84/34/66 83/42/66 97/41/66
f 97/33/66 83/34/66 82/42/66 98/41/66
f 98/33/66 82/34/66 81/42/66 99/41/66
f 99/33/66 81/34/66 80/42/66 100/41/66
f 100/33/66 80/34/66 79/42/66 101/41/66
f 101/33/66 79/34/66 78/42/66 102/41/66
f 102/33/66 78/34/66 77/42/66 103/41/66
f 103/33/66 77/34/66 76/42/66 104/41/66
f 104/33/66 76/34/66 75/42/66 105/41/66
f 105/33/66 75/34/66 74/42/66 106/41/66
f 106/33/66 74/34/66 73/42/66 107/41/66
f 107/33/66 73/34/66 72/42/66 108/41/66
f 132/33/67 108/34/68 85/42/69 109/41/70
f 109/33/71 85/34/69 86/42/63 110/41/72
f 110/33/73 86/34/63 87/42/74 111/41/75
f 111/33/76 87/34/74 88/42/77 112/41/78
f 112/33/79 88/34/77 89/42/60 113/41/80
f 113/33/81 89/34/60 90/42/82 114/41/83
f 114/33/84 90/34/82 91/42/85 115/41/86
f 115/33/87 91/34/85 92/42/57 116/41/88
f 116/33/89 92/34/57 93/42/90 117/41/91
f 117/33/92 93/34/90 94/42/93 118/41/94
f 118/33/95 94/34/93 95/42/54 119/41/96
f 119/33/97 95/34/54 96/42/98 120/41/99
f 120/33/100 96/34/98 97/42/101 121/41/102
f 121/33/103 97/34/101 98/42/51 122/41/104
f 122/33/105 98/34/51 99/42/106 123/41/107
f 123/33/108 99/34/106 100/42/109 124/41/110
f 124/33/111 100/34/109 101/42/48 125/41/112
f 125/33/113 101/34/48 102/42/114 126/41/115
f 126/33/116 102/34/114 103/42/117 127/41/118
f 127/33/119 103/34/117 104/42/45 128/41/120
f 128/33/121 104/34/45 105/42/122 129/41/123
f 129/33/124 105/34/122 106/42/125 130/41/126
f 130/33/127 106/34/125 107/42/42 131/41/128
f 131/33/129 107/34/42 108/42/68 132/41/130
f 156/33/131 132/34/131 109/42/132 133/41/133
f 133/33/134 109/34/135 110/42/136 134/41/137
f 134/33/138 110/34/139 111/42/140 135/41/141
f 135/33/142 111/34/143 112/42/144 136/41/145
f 136/33/146 112/34/147 113/42/148 137/41/149
f 137/33/150 113/34/151 114/42/152 138/41/153
f 138/33/154 114/34/154 115/42/155 139/41/155
f 139/33/156 115/34/157 116/42/158 140/41/159
f 140/33/160 116/34/161 117/42/162 141/41/163
f 141/33/164 117/34/165 118/42/166 142/41/167
f 142/33/168 118/34/169 119/42/170 143/41/171
f 143/33/172 119/34/173 120/42/174 144/41/175
f 144/33/176 120/34/176 121/42/177 145/41/178
f 145/33/179 121/34/180 122/42/181 146/41/182
f 146/33/183 122/34/184 123/42/185 147/41/186
f 147/33/187 123/34/188 124/42/189 148/41/190
f 148/33/191 124/34/192 125/42/193 149/41/194
f 149/33/195 125/34/196 126/42/197 150/41/198
f 150/33/199 126/34/199 127/42/200 151/41/200
f 151/33/201 127/34/202 128/42/203 152/41/204
f 152/33/205 128/34/206 129/42/207 153/41/208
f 153/33/209 129/34/210 130/42/211 154/41/212
f 154/33/213 130/34/214 131/42/215 155/41/216
f 155/33/217 131/34/218 132/42/219 156/41/220
f 180/33/221 156/34/222 133/42/223 157/41/64
f 157/33/64 133/34/224 134/42/225 158/41/63
f 158/33/63 134/34/226 135/42/227 159/41/62
f 159/33/62 135/34/228 136/42/229 160/41/230
f 160/33/230 136/34/231 137/42/232 161/41/60
f 161/33/60 137/34/233 138/42/234 162/41/235
f 162/33/235 138/34/236 139/42/237 163/41/58
f 163/33/58 139/34/238 140/42/88 164/41/57
f 164/33/57 140/34/239 141/42/240 165/41/56
f 165/33/56 141/34/241 142/42/242 166/41/243
f 166/33/243 142/34/244 143/42/245 167/41/54
f 167/33/54 143/34/246 144/42/247 168/41/248
f 168/33/248 144/34/249 145/42/250 169/41/52
f 169/33/52 145/34/251 146/42/252 170/41/51
f 170/33/51 146/34/253 147/42/254 171/41/50
f 171/33/50 147/34/255 148/42/256 172/41/257
f 172/33/257 148/34/258 149/42/259 173/41/48
f 173/33/48 149/34/260 150/42/261 174/41/262
f 174/33/262 150/34/263 151/42/264 175/41/46
f 175/33/46 151/34/265 152/42/120 176/41/45
f 176/33/45 152/34/266 153/42/267 177/41/44
f 177/33/44 153/34/268 154/42/269 178/41/270
f 178/33/270 154/34/271 155/42/272 179/41/42
f 179/33/42 155/34/273 156/42/274 180/41/221
f 157/33/66 158/33/66 159/33/66 160/33/66 161/33/66 162/33/66 163/33/66 164/33/66 165/33/66 166/33/66 167/41/66 168/33/66 169/33/66 170/33/66 171/33/66 172/33/66 173/33/66 174/33/66 175/33/66 176/33/66 177/33/66 178/33/66 179/33/66 180/33/66

o Mesh (2)
mtllib PowerSocket.mtl
